<svg width="380" height="380" viewBox="0 0 380 380" fill="none" xmlns="http://www.w3.org/2000/svg">
<g clip-path="url(#clip0_2260_1564)">
<path d="M0 380L380 380L380 0L0 0L0 380Z" fill="#8376FF"/>
<path d="M189.329 190.5C189.329 190.5 175.807 211.005 163.681 230.862C150.363 252.695 140.111 282.124 158.742 300.585C175.432 317.138 203.192 317.138 219.882 300.585C238.513 282.09 229.317 256.101 215.999 234.302C203.873 214.445 189.295 190.5 189.295 190.5H189.329Z" fill="black"/>
<path d="M189.67 190.5C189.67 190.5 203.192 169.995 215.318 150.138C228.635 128.305 238.888 98.8762 220.256 80.4152C203.567 63.8616 175.807 63.8616 159.117 80.4152C140.486 98.9103 149.682 124.899 163 146.698C175.126 166.555 189.704 190.5 189.704 190.5H189.67Z" fill="black"/>
<path d="M149.138 164.682C127.305 151.364 97.8762 141.112 79.4152 159.743C62.8616 176.433 62.8616 204.192 79.4152 220.882C97.9103 239.514 123.899 230.317 145.698 216.999C165.555 204.874 189.5 190.296 189.5 190.296C189.5 190.296 168.995 176.773 149.138 164.648V164.682Z" fill="black"/>
<path d="M299.585 160.118C281.09 141.486 255.101 150.683 233.302 164.001C213.445 176.126 189.5 190.704 189.5 190.704C189.5 190.704 210.005 204.227 229.862 216.352C251.695 229.67 281.124 239.922 299.585 221.291C316.138 204.601 316.138 176.842 299.585 160.152V160.118Z" fill="black"/>
</g>
<defs>
<clipPath id="clip0_2260_1564">
<rect width="380" height="380" fill="white"/>
</clipPath>
</defs>
</svg>
